<svg width="175" height="164" viewBox="0 0 175 164" fill="none" xmlns="http://www.w3.org/2000/svg">
<path d="M11 82C11 92.7684 13.121 103.431 17.2419 113.38C21.3628 123.329 27.4028 132.368 35.0172 139.983C42.6316 147.597 51.6713 153.637 61.62 157.758C71.5687 161.879 82.2316 164 93 164C103.768 164 114.431 161.879 124.38 157.758C134.329 153.637 143.368 147.597 150.983 139.983C158.597 132.368 164.637 123.329 168.758 113.38C172.879 103.431 175 92.7684 175 82L150.4 82C150.4 89.5379 148.915 97.0019 146.031 103.966C143.146 110.93 138.918 117.258 133.588 122.588C128.258 127.918 121.93 132.146 114.966 135.031C108.002 137.915 100.538 139.4 93 139.4C85.4621 139.4 77.9981 137.915 71.034 135.031C64.0699 132.146 57.7421 127.918 52.4121 122.588C47.082 117.258 42.8539 110.93 39.9693 103.966C37.0847 97.0019 35.6 89.5379 35.6 82L11 82Z" fill="black"/>
<path d="M93 61.5C93 55.3935 91.7972 49.3468 89.4604 43.7052C87.1235 38.0636 83.6984 32.9374 79.3805 28.6195C75.0625 24.3016 69.9364 20.8764 64.2948 18.5396C58.6531 16.2027 52.6065 15 46.5 15C40.3935 15 34.3469 16.2028 28.7052 18.5396C23.0636 20.8764 17.9375 24.3016 13.6195 28.6195C9.30161 32.9375 5.87645 38.0636 3.5396 43.7052C1.20276 49.3469 6.52879e-06 55.3935 8.13032e-06 61.5L24.4469 61.5C24.4469 58.604 25.0173 55.7363 26.1256 53.0606C27.2339 50.385 28.8583 47.9539 30.9061 45.9061C32.9539 43.8583 35.385 42.2339 38.0606 41.1256C40.7362 40.0173 43.6039 39.4469 46.5 39.4469C49.396 39.4469 52.2637 40.0173 54.9394 41.1256C57.615 42.2339 60.0461 43.8583 62.0939 45.9061C64.1417 47.9539 65.7661 50.385 66.8744 53.0606C67.9827 55.7362 68.5531 58.6039 68.5531 61.5L93 61.5Z" fill="black"/>
<path d="M110 65L129.849 45.0505L160 15" stroke="#BFFF00" stroke-width="18"/>
</svg>
