<svg width="29" height="41" viewBox="0 0 29 41" fill="none" xmlns="http://www.w3.org/2000/svg">
<mask id="path-1-inside-1_389_3369" fill="white">
<path d="M14.5 0C22.5081 0 29 6.49187 29 14.5C29 17.6598 27.9882 20.5828 26.2725 22.9648C26.2801 23.3378 26.1829 23.7222 25.9561 24.0771L16.1855 39.3633C15.399 40.5937 13.601 40.5937 12.8145 39.3633L3.04395 24.0771C2.81706 23.7222 2.71895 23.3378 2.72656 22.9648C1.01098 20.5829 0 17.6596 0 14.5C0 6.49187 6.49187 0 14.5 0Z"/>
</mask>
<path d="M14.5 0C22.5081 0 29 6.49187 29 14.5C29 17.6598 27.9882 20.5828 26.2725 22.9648C26.2801 23.3378 26.1829 23.7222 25.9561 24.0771L16.1855 39.3633C15.399 40.5937 13.601 40.5937 12.8145 39.3633L3.04395 24.0771C2.81706 23.7222 2.71895 23.3378 2.72656 22.9648C1.01098 20.5829 0 17.6596 0 14.5C0 6.49187 6.49187 0 14.5 0Z" fill="#FF7447"/>
<path d="M26.2725 22.9648L25.461 22.3804L25.2659 22.6514L25.2727 22.9853L26.2725 22.9648ZM25.9561 24.0771L25.1135 23.5386L25.1135 23.5386L25.9561 24.0771ZM16.1855 39.3633L17.0281 39.9019L17.0281 39.9018L16.1855 39.3633ZM12.8145 39.3633L11.9719 39.9018L11.9719 39.9019L12.8145 39.3633ZM3.04395 24.0771L3.88653 23.5386L3.88652 23.5386L3.04395 24.0771ZM2.72656 22.9648L3.72635 22.9853L3.73317 22.6514L3.538 22.3804L2.72656 22.9648ZM14.5 0V1C21.9558 1 28 7.04416 28 14.5H29H30C30 5.93959 23.0604 -1 14.5 -1V0ZM29 14.5H28C28 17.4429 27.0585 20.1627 25.461 22.3804L26.2725 22.9648L27.0839 23.5493C28.918 21.003 30 17.8768 30 14.5H29ZM26.2725 22.9648L25.2727 22.9853C25.2764 23.1669 25.2304 23.3556 25.1135 23.5386L25.9561 24.0771L26.7986 24.6157C27.1355 24.0887 27.2838 23.5087 27.2723 22.9444L26.2725 22.9648ZM25.9561 24.0771L25.1135 23.5386L15.343 38.8247L16.1855 39.3633L17.0281 39.9018L26.7986 24.6157L25.9561 24.0771ZM16.1855 39.3633L15.343 38.8247C14.9497 39.4399 14.0503 39.4399 13.657 38.8247L12.8145 39.3633L11.9719 39.9019C13.1517 41.7475 15.8483 41.7475 17.0281 39.9019L16.1855 39.3633ZM12.8145 39.3633L13.657 38.8247L3.88653 23.5386L3.04395 24.0771L2.20136 24.6157L11.9719 39.9018L12.8145 39.3633ZM3.04395 24.0771L3.88652 23.5386C3.7687 23.3542 3.72268 23.1652 3.72635 22.9853L2.72656 22.9648L1.72677 22.9444C1.71522 23.5104 1.86541 24.0901 2.20137 24.6157L3.04395 24.0771ZM2.72656 22.9648L3.538 22.3804C1.94087 20.1629 1 17.4429 1 14.5H0H-1C-1 17.8764 0.081096 21.0029 1.91512 23.5493L2.72656 22.9648ZM0 14.5H1C1 7.04416 7.04416 1 14.5 1V0V-1C5.93959 -1 -1 5.93959 -1 14.5H0Z" fill="black" mask="url(#path-1-inside-1_389_3369)"/>
</svg>
